<svg xmlns="http://www.w3.org/2000/svg" version="1.1" viewBox="-5.0 -10.0 110.0 135.0">
 <path d="m19.895 19.273 10.832 2.4531 1.3477-5.9492-10.832-2.4531zm-0.26172 51.441-10.832-2.4531-1.3047 5.7695 10.832 2.4531zm1.043-4.6016-0.52734 2.3359-10.832-2.4531 0.52734-2.3359zm-10.316-4.7148 9.0312-39.852 10.832 2.4531-9.0312 39.852zm39.031-49.641v-7.3984h-14.758v7.3984zm0 55.211v-52.883h-14.758v52.883zm-9.8438-46.957h4.9375c0.64062 0 1.168 0.52734 1.168 1.168v38.707c0 0.64062-0.52734 1.168-1.168 1.168h-4.9375c-0.64062 0-1.168-0.52734-1.168-1.168v-38.707c0-0.64063 0.52734-1.168 1.168-1.168zm13.641 1.2227 14.398-3.2734-1.2422-5.4297-14.398 3.2734zm25.738 46.535-14.398 3.2734 1.2422 5.4297 14.398-3.2734zm-14.914 1.0117-10.305-45.285 14.398-3.2734 10.305 45.285zm-0.67188-42.086-2.5469 0.57813 1.4414 6.3164 2.5469-0.57812zm-4.1914-1.4297c-0.62109 0.13672-1.0195 0.75781-0.875 1.3906l1.957 8.5898c0.13672 0.62109 0.75781 1.0195 1.3906 0.875l4.8086-1.0938c0.62109-0.13672 1.0195-0.75781 0.875-1.3906l-1.957-8.5898c-0.13672-0.62109-0.75781-1.0195-1.3906-0.875zm10.727 30.125-2.5469 0.57812 1.4414 6.3164 2.5469-0.57812zm-4.1914-1.4297c-0.62109 0.13672-1.0195 0.75781-0.875 1.3906l1.957 8.5898c0.13672 0.62109 0.75781 1.0195 1.3906 0.875l4.8086-1.0938c0.62109-0.13672 1.0195-0.75781 0.875-1.3906l-1.957-8.5898c-0.13672-0.62109-0.75781-1.0195-1.3906-0.875zm28.125-33.41v-6.0859h-11.094v6.0859zm0 45.516h-11.094v2.3906h11.094zm-11.094-2.3281h11.094v-40.844h-11.094v40.852zm4.3906-9.7148c0-0.64063 0.52734-1.168 1.168-1.168 0.64062 0 1.168 0.52734 1.168 1.168v4.1797c0 0.64062-0.52734 1.168-1.168 1.168-0.64063 0-1.168-0.52734-1.168-1.168zm0-17.914c0-0.64062 0.52734-1.168 1.168-1.168 0.64062 0 1.168 0.52734 1.168 1.168v13.254c0 0.64062-0.52734 1.168-1.168 1.168-0.64063 0-1.168-0.52734-1.168-1.168zm0-7.6836c0-0.64062 0.52734-1.168 1.168-1.168 0.64062 0 1.168 0.52734 1.168 1.168v3.0117c0 0.64062-0.52734 1.168-1.168 1.168-0.64063 0-1.168-0.52734-1.168-1.168zm10.273 50.602-94.746-0.007813v1.5586h94.738v-1.5586zm-65.074-2.3281v-51.395l-11.641 51.398h11.641zm17.086 0v-7.3984h-14.758v7.3984zm14.043 0-11.707-51.43v51.43zm16.957 0h-5.1484l5.1484-1.168zm13.43 0v-5.9062h-11.094v5.9062zm-78.336 6.2227h-3.0195v12.727h3.0195zm72.094 0h-3.0195v12.727h3.0195zm-46.871-57.574v-3.0117h2.6016v3.0117zm0 7.0117v-4.6719h2.6016v4.6719zm0 7.0117v-4.6719h2.6016v4.6719zm0 7.0117v-4.6719h2.6016v4.6719zm2.6016 9.3359v3.0117h-2.6016v-3.0117zm-2.6016-2.3281v-4.6719h2.6016v4.6719z" fill-rule="evenodd"/>
<text x="0.0" y="117.5" font-size="5.0" font-weight="bold" font-family="Arbeit Regular, Helvetica, Arial-Unicode, Arial, Sans-serif" fill="#000000">Created by iconvision656</text><text x="0.0" y="122.5" font-size="5.0" font-weight="bold" font-family="Arbeit Regular, Helvetica, Arial-Unicode, Arial, Sans-serif" fill="#000000">from Noun Project</text></svg>