<svg xmlns="http://www.w3.org/2000/svg" version="1.1" viewBox="-5.0 -10.0 110.0 135.0">
 <path d="m90.625 69.215c1.7266 0 3.1289 1.3984 3.1289 3.125v3.9062c0 1.7266-1.4023 3.125-3.1289 3.125h-81.246c-1.7266 0-3.1289-1.3984-3.1289-3.125v-3.9062c0-1.7266 1.4023-3.125 3.1289-3.125zm-79.098-1.5625v-5.6641c0-0.84375 0.66797-1.5352 1.5117-1.5625 13.715-0.45312 24.637 2.5781 34.27 7.2266zm41.234 0c11.23-5.293 22.637-7.5938 34.203-7.2266 0.84375 0.027344 1.5117 0.71875 1.5117 1.5625v5.6641zm-35.957-8.8281 0.023437-2.1523c0.007813-0.77344 0.57422-1.4258 1.3398-1.5312 10.602-1.5 21.227 2.8594 31.828 8.543 9.9844-5.7344 20.531-8.6719 31.684-8.5586 0.85937 0.007812 1.5508 0.70312 1.5508 1.5625v2.1484c-11.223 0.20312-22.305 2.9102-33.223 8.418-9.4336-4.8516-20.027-8.2539-33.203-8.4297zm44.16-11.43h3.832c4.4336 0 8.293 2.6523 10.004 6.5078-8.6445 0.87891-16.922 3.5938-24.852 8.0273-8.1641-4.3203-16.348-7.7773-24.516-8.4883 1.8008-3.6016 5.5234-6.0469 9.7891-6.0469h3.832c2.8477 2.9062 6.7148 4.6875 10.953 4.6875 4.2344 0 8.1016-1.7812 10.957-4.6875zm-10.957-27.082c7.8008 0 14.199 6.7383 14.199 15.105 0 8.3633-6.3984 15.102-14.199 15.102-7.8086 0-14.203-6.7383-14.203-15.102 0-8.3672 6.3945-15.105 14.203-15.105z" fill-rule="evenodd"/>
<text x="0.0" y="117.5" font-size="5.0" font-weight="bold" font-family="Arbeit Regular, Helvetica, Arial-Unicode, Arial, Sans-serif" fill="#000000">Created by Koko Robert</text><text x="0.0" y="122.5" font-size="5.0" font-weight="bold" font-family="Arbeit Regular, Helvetica, Arial-Unicode, Arial, Sans-serif" fill="#000000">from Noun Project</text></svg>